<svg width="800" height="800" viewBox="0 0 800 800" fill="none" xmlns="http://www.w3.org/2000/svg">
<g clip-path="url(#clip0_93_484)">
<path d="M0 400C0 179.086 179.086 0 400 0C620.914 0 800 179.086 800 400C800 620.914 620.914 800 400 800C179.086 800 0 620.914 0 400Z" fill="white"/>
<path fill-rule="evenodd" clip-rule="evenodd" d="M400 800C620.915 800 800 620.915 800 400C800 179.086 620.915 0 400 0C179.086 0 2.86102e-06 179.086 2.86102e-06 400C2.86102e-06 620.915 179.086 800 400 800ZM214.645 285.355L329.29 400L214.645 514.645L285.355 585.355L400 470.711L514.645 585.355L585.355 514.645L470.711 400L585.355 285.355L514.645 214.645L400 329.29L285.355 214.645L214.645 285.355Z" fill="#DE2821"/>
</g>
<defs>
<clipPath id="clip0_93_484">
<path d="M0 400C0 179.086 179.086 0 400 0C620.914 0 800 179.086 800 400C800 620.914 620.914 800 400 800C179.086 800 0 620.914 0 400Z" fill="white"/>
</clipPath>
</defs>
</svg>
