<svg width="439" height="442" viewBox="0 0 439 442" fill="none" xmlns="http://www.w3.org/2000/svg">
<path d="M203.252 439.574C200.978 438.863 196.6 436.84 193.522 435.079C185.049 430.231 42.0817 326.579 36.6717 321.369C30.8854 315.787 28.3841 309.54 26.3817 295.669C25.5744 290.077 19.24 241.851 12.3057 188.499C-2.0643 77.9388 -2.1243 77.0788 3.7157 64.8588C9.0557 53.6918 20.6457 44.3968 33.9357 40.6368C47.2787 36.8609 219.396 0.00482178 223.686 0.00482178C228.378 0.00482178 393.126 36.1418 405.896 39.9718C421.056 44.519 433.287 56.1868 437.308 69.9358C438.181 72.9231 438.896 78.976 438.896 83.3868C438.896 94.5608 417.175 305.337 415.374 311.637C412.457 321.844 411.294 322.703 324.609 378.614C235.176 436.298 235.082 436.356 227.215 439.063C220.673 441.313 209.58 441.55 203.262 439.573L203.252 439.574Z" fill="url(#paint0_linear_93_483)"/>
<path d="M7.33198 61.438L1.58199 69.7505C-1.83411 79.5581 -0.0229206 93.6915 12.301 188.5C19.2357 241.85 25.587 290.06 26.395 295.66C28.3975 309.531 30.8899 315.797 36.676 321.379C42.0784 326.591 185.046 430.219 193.516 435.069C196.594 436.83 200.961 438.858 203.235 439.569C209.552 441.546 220.662 441.32 227.204 439.069C231.665 437.535 234.159 436.485 251.329 425.663L251.985 424.195C251.985 424.195 220.166 434.806 210.266 415.007L206.735 185.887C201.085 164.197 186.945 150.307 170.685 139.937L8.05484 72.0352C5.55484 66.7852 7.33609 61.4412 7.33609 61.4412L7.33198 61.438Z" fill="url(#paint1_linear_93_483)"/>
<path opacity="0.99" d="M27.102 297.074C29.1045 310.945 30.8898 315.797 36.6761 321.379C42.0785 326.591 185.046 430.219 193.516 435.069C196.594 436.83 200.961 438.858 203.235 439.569C209.552 441.546 220.662 441.32 227.204 439.069C231.665 437.534 234.159 436.485 251.329 425.663L251.985 424.194C251.985 424.194 220.873 436.22 210.973 416.421L27.0932 297.081L27.102 297.074Z" fill="url(#paint2_linear_93_483)"/>
<path opacity="0.99" d="M415.682 303.544C412.898 317.28 402.348 339.009 404.748 327.268C406.252 319.914 263.188 417.642 254.448 422.003C251.275 423.587 246.801 425.365 244.49 425.946C238.071 427.562 226.992 426.708 220.588 424.091C216.221 422.307 213.791 421.118 197.26 409.342L196.688 407.839C196.688 407.839 227.07 421.605 238.074 402.398L415.674 303.545L415.682 303.544Z" fill="url(#paint3_linear_93_483)"/>
<g opacity="0.99" filter="url(#filter0_f_93_483)">
<path d="M210.802 153.704L231.802 154.204L216.802 413.204H214.802L210.802 153.704Z" fill="url(#paint4_linear_93_483)"/>
</g>
<g opacity="0.99" filter="url(#filter1_f_93_483)">
<path d="M215.302 158.204L217.802 150.204L10.802 66.204H8.80199L215.302 158.204Z" fill="url(#paint5_linear_93_483)"/>
</g>
<g opacity="0.99" filter="url(#filter2_f_93_483)">
<path d="M220.302 160.704L220.802 153.204L429.802 65.204H431.802L220.302 160.704Z" fill="url(#paint6_linear_93_483)"/>
</g>
<g opacity="0.44898" filter="url(#filter3_f_93_483)">
<path d="M239.802 150.954C239.802 159.653 230.736 166.704 219.552 166.704C208.368 166.704 199.302 159.653 199.302 150.954C199.302 142.256 208.368 135.204 219.552 135.204C230.736 135.204 239.802 142.256 239.802 150.954Z" fill="#EFEFED"/>
</g>
<path d="M204.802 173.204L218.802 317.204L232.802 173.204V435.714C221.302 441.762 204.802 437.442 204.802 437.442V173.202V173.204Z" fill="url(#paint7_linear_93_483)"/>
<path d="M247.042 427.014L215.576 422.064L193.656 434.438L212.041 441.863L224.769 441.156L247.043 427.014L247.042 427.014Z" fill="url(#paint8_linear_93_483)"/>
<path d="M170.092 263.674C170.092 279.365 162.32 292.086 151.726 292.086C141.132 292.086 131.729 279.366 131.729 263.674C131.729 247.983 137.362 235.262 149.687 235.262C160.281 235.262 170.092 247.982 170.092 263.674Z" fill="url(#paint9_linear_93_483)"/>
<path d="M172.412 341.334C172.412 356.711 164.796 369.177 154.414 369.177C144.033 369.177 134.817 356.711 134.817 341.334C134.817 325.957 140.338 313.491 152.415 313.491C162.797 313.491 172.412 325.957 172.412 341.334Z" fill="url(#paint10_linear_93_483)"/>
<path d="M58.962 129.402C58.962 144.17 51.6471 156.143 41.676 156.143C31.7054 156.143 22.855 144.171 22.855 129.402C22.855 114.634 28.1571 102.661 39.757 102.661C49.7276 102.661 58.962 114.633 58.962 129.402Z" fill="url(#paint11_linear_93_483)"/>
<path d="M66.602 209.404C66.602 223.877 59.4334 235.61 49.662 235.61C39.8908 235.61 31.217 223.877 31.217 209.404C31.217 194.931 36.413 183.198 47.781 183.198C57.5522 183.198 66.602 194.931 66.602 209.404Z" fill="url(#paint12_linear_93_483)"/>
<path d="M73.252 284.404C73.252 298.588 66.2268 310.086 56.651 310.086C47.0752 310.086 38.575 298.588 38.575 284.404C38.575 270.22 43.6671 258.722 54.807 258.722C64.3828 258.722 73.252 270.22 73.252 284.404Z" fill="url(#paint13_linear_93_483)"/>
<path d="M259.618 187.365C259.618 202.553 267.141 214.865 277.394 214.865C287.648 214.865 296.75 202.552 296.75 187.365C296.75 172.176 291.297 159.865 279.368 159.865C269.114 159.865 259.617 172.177 259.617 187.365H259.618Z" fill="url(#paint14_linear_93_483)"/>
<path d="M255.89 344.761C255.89 359.347 263.115 371.172 272.962 371.172C282.81 371.172 291.552 359.347 291.552 344.761C291.552 330.175 286.315 318.35 274.859 318.35C265.011 318.35 255.89 330.175 255.89 344.761Z" fill="url(#paint15_linear_93_483)"/>
<path d="M381.196 131.93C381.196 145.939 388.135 157.296 397.593 157.296C407.051 157.296 415.446 145.94 415.446 131.93C415.446 117.922 410.417 106.564 399.414 106.564C389.956 106.564 381.196 117.921 381.196 131.93Z" fill="url(#paint16_linear_93_483)"/>
<path d="M363.648 282.961C363.648 296.416 370.312 307.323 379.395 307.323C388.478 307.323 396.541 296.416 396.541 282.961C396.541 269.507 391.711 258.6 381.144 258.6C372.061 258.6 363.648 269.507 363.648 282.961Z" fill="url(#paint17_linear_93_483)"/>
<path opacity="0.25" d="M264.399 190.637C264.399 205.521 271.771 217.588 281.82 217.588C291.869 217.588 300.789 205.522 300.789 190.637C300.789 175.753 295.445 163.686 283.754 163.686C273.705 163.686 264.399 175.752 264.399 190.637Z" fill="white"/>
<path opacity="0.25" d="M261.933 345.501C261.933 360.087 269.157 371.912 279.005 371.912C288.852 371.912 297.594 360.087 297.594 345.501C297.594 330.914 292.357 319.09 280.901 319.09C271.053 319.09 261.933 330.914 261.933 345.501Z" fill="white"/>
<path opacity="0.25" d="M369.168 285.684C369.168 299.412 375.968 310.542 385.237 310.542C394.506 310.542 402.734 299.412 402.734 285.684C402.734 271.955 397.805 260.826 387.021 260.826C377.753 260.826 369.168 271.955 369.168 285.684Z" fill="white"/>
<path opacity="0.25" d="M386.745 134.634C386.745 148.928 393.826 160.516 403.476 160.516C413.127 160.516 421.693 148.928 421.693 134.634C421.693 120.339 416.561 108.751 405.333 108.751C395.683 108.751 386.744 120.34 386.744 134.634H386.745Z" fill="white"/>
<path d="M252.804 56.2094C252.804 62.8369 237.645 68.2095 218.947 68.2095C200.248 68.2095 185.09 62.8369 185.09 56.2094C185.09 49.582 200.248 44.2094 218.947 44.2094C237.645 44.2094 252.804 49.582 252.804 56.2094Z" fill="url(#paint18_linear_93_483)"/>
<path d="M250.37 59.0679C250.37 63.3649 236.051 68.2624 218.388 68.2624C200.725 68.2624 186.406 63.3649 186.406 59.0679C186.406 54.771 200.725 51.2877 218.388 51.2877C236.051 51.2877 250.37 54.771 250.37 59.0679Z" fill="url(#paint19_linear_93_483)"/>
<path d="M168.482 175.404C168.482 191.416 160.551 204.395 149.742 204.395C138.932 204.395 129.337 191.415 129.337 175.404C129.337 159.392 135.085 146.413 147.661 146.413C158.471 146.413 168.483 159.393 168.483 175.404H168.482Z" fill="url(#paint20_linear_93_483)"/>
<path opacity="0.25" d="M168.102 176.284C171.014 189.525 166.817 201.701 157.877 203.667C148.938 205.633 138.642 196.644 135.73 183.403C132.818 170.162 135.211 158.383 145.611 156.096C154.55 154.13 165.19 163.043 168.102 176.284Z" fill="white"/>
<path opacity="0.25" d="M170.272 263.854C173.126 276.83 169.012 288.763 160.252 290.69C151.492 292.617 141.402 283.808 138.548 270.832C135.694 257.856 138.039 246.312 148.231 244.071C156.991 242.144 167.419 250.879 170.273 263.855L170.272 263.854Z" fill="white"/>
<path opacity="0.25" d="M171.952 340.924C174.749 353.641 170.717 365.335 162.132 367.223C153.547 369.111 143.659 360.478 140.862 347.762C138.065 335.045 140.364 323.733 150.351 321.536C158.937 319.648 169.155 328.208 171.952 340.924Z" fill="white"/>
<path opacity="0.25" d="M61.452 130.635C64.2488 143.352 60.2174 155.046 51.6321 156.934C43.0468 158.822 33.1591 150.189 30.3621 137.473C27.5653 124.756 29.8635 113.444 39.8514 111.247C48.4367 109.359 58.655 117.919 61.452 130.635Z" fill="white"/>
<path opacity="0.25" d="M69.142 208.704C71.8828 221.166 67.9321 232.626 59.5185 234.477C51.1049 236.327 41.4145 227.867 38.6735 215.405C35.9327 202.943 38.1849 191.856 47.973 189.703C56.3866 187.853 66.401 196.241 69.142 208.704Z" fill="white"/>
<path opacity="0.25" d="M75.832 284.774C78.518 296.987 74.6463 308.218 66.401 310.031C58.1557 311.844 48.659 303.554 45.973 291.341C43.287 279.128 45.4941 268.263 55.0865 266.153C63.3318 264.34 73.146 272.561 75.832 284.774Z" fill="white"/>
<defs>
<filter id="filter0_f_93_483" x="205.169" y="148.072" width="32.2651" height="270.765" filterUnits="userSpaceOnUse" color-interpolation-filters="sRGB">
<feFlood flood-opacity="0" result="BackgroundImageFix"/>
<feBlend mode="normal" in="SourceGraphic" in2="BackgroundImageFix" result="shape"/>
<feGaussianBlur stdDeviation="2.81627" result="effect1_foregroundBlur_93_483"/>
</filter>
<filter id="filter1_f_93_483" x="5.86022" y="63.2623" width="214.884" height="97.8835" filterUnits="userSpaceOnUse" color-interpolation-filters="sRGB">
<feFlood flood-opacity="0" result="BackgroundImageFix"/>
<feBlend mode="normal" in="SourceGraphic" in2="BackgroundImageFix" result="shape"/>
<feGaussianBlur stdDeviation="1.47088" result="effect1_foregroundBlur_93_483"/>
</filter>
<filter id="filter2_f_93_483" x="215.37" y="60.2723" width="221.363" height="105.363" filterUnits="userSpaceOnUse" color-interpolation-filters="sRGB">
<feFlood flood-opacity="0" result="BackgroundImageFix"/>
<feBlend mode="normal" in="SourceGraphic" in2="BackgroundImageFix" result="shape"/>
<feGaussianBlur stdDeviation="2.46586" result="effect1_foregroundBlur_93_483"/>
</filter>
<filter id="filter3_f_93_483" x="193.663" y="129.565" width="51.7771" height="42.7771" filterUnits="userSpaceOnUse" color-interpolation-filters="sRGB">
<feFlood flood-opacity="0" result="BackgroundImageFix"/>
<feBlend mode="normal" in="SourceGraphic" in2="BackgroundImageFix" result="shape"/>
<feGaussianBlur stdDeviation="2.81928" result="effect1_foregroundBlur_93_483"/>
</filter>
<linearGradient id="paint0_linear_93_483" x1="228.802" y1="18.206" x2="219.482" y2="317.204" gradientUnits="userSpaceOnUse">
<stop stop-color="#EEEEEC"/>
<stop offset="1" stop-color="#D3D7CF"/>
</linearGradient>
<linearGradient id="paint1_linear_93_483" x1="126.022" y1="367.204" x2="-43.938" y2="111.206" gradientUnits="userSpaceOnUse">
<stop stop-color="#BABDB6"/>
<stop offset="1" stop-color="#BABDB6" stop-opacity="0"/>
</linearGradient>
<linearGradient id="paint2_linear_93_483" x1="91.482" y1="440.914" x2="139.542" y2="368.994" gradientUnits="userSpaceOnUse">
<stop/>
<stop offset="1" stop-opacity="0"/>
</linearGradient>
<linearGradient id="paint3_linear_93_483" x1="370.142" y1="465.429" x2="312.083" y2="359.095" gradientUnits="userSpaceOnUse">
<stop/>
<stop offset="1" stop-opacity="0"/>
</linearGradient>
<linearGradient id="paint4_linear_93_483" x1="221.302" y1="146.944" x2="221.302" y2="375.454" gradientUnits="userSpaceOnUse">
<stop stop-color="#EEEEEC"/>
<stop offset="1" stop-color="#D3D7CF"/>
</linearGradient>
<linearGradient id="paint5_linear_93_483" x1="71.802" y1="92.206" x2="221.332" y2="161.734" gradientUnits="userSpaceOnUse">
<stop stop-color="white"/>
<stop offset="1" stop-color="white" stop-opacity="0"/>
</linearGradient>
<linearGradient id="paint6_linear_93_483" x1="378.802" y1="112.956" x2="214.382" y2="166.624" gradientUnits="userSpaceOnUse">
<stop stop-color="white"/>
<stop offset="1" stop-color="white" stop-opacity="0"/>
</linearGradient>
<linearGradient id="paint7_linear_93_483" x1="205.802" y1="321.665" x2="231.802" y2="321.665" gradientUnits="userSpaceOnUse">
<stop stop-color="#BABDB6"/>
<stop offset="1" stop-color="#D3D7CF"/>
</linearGradient>
<linearGradient id="paint8_linear_93_483" x1="220.352" y1="453.884" x2="220.352" y2="422.064" gradientUnits="userSpaceOnUse">
<stop stop-color="#2E3436"/>
<stop offset="1" stop-color="#2E3436" stop-opacity="0"/>
</linearGradient>
<linearGradient id="paint9_linear_93_483" x1="131.732" y1="235.254" x2="170.092" y2="277.814" gradientUnits="userSpaceOnUse">
<stop stop-color="#5C0000"/>
<stop offset="1" stop-color="#CC0000"/>
</linearGradient>
<linearGradient id="paint10_linear_93_483" x1="134.822" y1="313.484" x2="172.412" y2="369.174" gradientUnits="userSpaceOnUse">
<stop stop-color="#5C0000"/>
<stop offset="1" stop-color="#CC0000"/>
</linearGradient>
<linearGradient id="paint11_linear_93_483" x1="22.862" y1="102.662" x2="58.962" y2="129.402" gradientUnits="userSpaceOnUse">
<stop stop-color="#5C0000"/>
<stop offset="1" stop-color="#CC0000"/>
</linearGradient>
<linearGradient id="paint12_linear_93_483" x1="31.222" y1="183.194" x2="66.602" y2="235.604" gradientUnits="userSpaceOnUse">
<stop stop-color="#5C0000"/>
<stop offset="1" stop-color="#CC0000"/>
</linearGradient>
<linearGradient id="paint13_linear_93_483" x1="38.572" y1="258.724" x2="73.252" y2="310.084" gradientUnits="userSpaceOnUse">
<stop stop-color="#5C0000"/>
<stop offset="1" stop-color="#CC0000"/>
</linearGradient>
<linearGradient id="paint14_linear_93_483" x1="290.911" y1="175.28" x2="278.181" y2="214.864" gradientUnits="userSpaceOnUse">
<stop stop-color="#A40000"/>
<stop offset="1" stop-color="#D14040"/>
</linearGradient>
<linearGradient id="paint15_linear_93_483" x1="291.547" y1="318.343" x2="255.89" y2="344.761" gradientUnits="userSpaceOnUse">
<stop stop-color="#A40000"/>
<stop offset="1" stop-color="#D14040"/>
</linearGradient>
<linearGradient id="paint16_linear_93_483" x1="415.44" y1="106.565" x2="384.734" y2="134.634" gradientUnits="userSpaceOnUse">
<stop stop-color="#A40000"/>
<stop offset="1" stop-color="#D14040"/>
</linearGradient>
<linearGradient id="paint17_linear_93_483" x1="396.535" y1="258.602" x2="363.648" y2="282.961" gradientUnits="userSpaceOnUse">
<stop stop-color="#A40000"/>
<stop offset="1" stop-color="#D14040"/>
</linearGradient>
<linearGradient id="paint18_linear_93_483" x1="198.611" y1="50.1294" x2="266.016" y2="40.7872" gradientUnits="userSpaceOnUse">
<stop stop-color="#A40000"/>
<stop offset="1"/>
</linearGradient>
<linearGradient id="paint19_linear_93_483" x1="204.268" y1="68.2635" x2="230.689" y2="35.4439" gradientUnits="userSpaceOnUse">
<stop stop-color="#CC0000"/>
<stop offset="1" stop-color="#690000"/>
</linearGradient>
<linearGradient id="paint20_linear_93_483" x1="129.342" y1="146.414" x2="168.482" y2="175.404" gradientUnits="userSpaceOnUse">
<stop stop-color="#5C0000"/>
<stop offset="1" stop-color="#CC0000"/>
</linearGradient>
</defs>
</svg>
