<svg width="800" height="800" viewBox="0 0 800 800" fill="none" xmlns="http://www.w3.org/2000/svg">
<g clip-path="url(#clip0_94_486)">
<path d="M0 400C0 179.086 179.086 0 400 0C620.914 0 800 179.086 800 400C800 620.914 620.914 800 400 800C179.086 800 0 620.914 0 400Z" fill="white"/>
<path fill-rule="evenodd" clip-rule="evenodd" d="M400 800C620.915 800 800 620.915 800 400C800 179.086 620.915 0 400 0C179.086 0 0 179.086 0 400C0 620.915 179.086 800 400 800ZM635.355 285.355L564.645 214.645L325 454.289L235.355 364.645L164.645 435.356L325 595.71L635.355 285.355Z" fill="#49C000"/>
</g>
<defs>
<clipPath id="clip0_94_486">
<path d="M0 400C0 179.086 179.086 0 400 0C620.914 0 800 179.086 800 400C800 620.914 620.914 800 400 800C179.086 800 0 620.914 0 400Z" fill="white"/>
</clipPath>
</defs>
</svg>
